<?xml version="1.0" encoding="UTF-8" standalone="no"?>
<!-- Created with Inkscape (http://www.inkscape.org/) -->

<svg
   xmlns:dc="http://purl.org/dc/elements/1.1/"
   xmlns:cc="http://creativecommons.org/ns#"
   xmlns:rdf="http://www.w3.org/1999/02/22-rdf-syntax-ns#"
   xmlns:svg="http://www.w3.org/2000/svg"
   xmlns="http://www.w3.org/2000/svg"
   xmlns:sodipodi="http://sodipodi.sourceforge.net/DTD/sodipodi-0.dtd"
   xmlns:inkscape="http://www.inkscape.org/namespaces/inkscape"
   width="512"
   height="512"
   viewBox="0 0 135.46666 135.46667"
   version="1.1"
   id="svg14156"
   inkscape:version="0.92.3 (2405546, 2018-03-11)"
   sodipodi:docname="free_youtube_active.svg">
  <defs
     id="defs14150" />
  <sodipodi:namedview
     id="base"
     pagecolor="#ffffff"
     bordercolor="#666666"
     borderopacity="1.0"
     inkscape:pageopacity="0.0"
     inkscape:pageshadow="2"
     inkscape:zoom="1.0664062"
     inkscape:cx="269.22583"
     inkscape:cy="264.24696"
     inkscape:document-units="mm"
     inkscape:current-layer="layer1"
     showgrid="false"
     units="px"
     showguides="true"
     inkscape:guide-bbox="true"
     showborder="true"
     inkscape:showpageshadow="false"
     inkscape:window-width="1920"
     inkscape:window-height="1027"
     inkscape:window-x="1358"
     inkscape:window-y="-8"
     inkscape:window-maximized="1">
    <sodipodi:guide
       position="0,239.63691"
       orientation="1,0"
       id="guide14701"
       inkscape:locked="false" />
    <sodipodi:guide
       position="135.5018,135.46666"
       orientation="0,1"
       id="guide14703"
       inkscape:locked="false" />
    <sodipodi:guide
       position="135.46666,135.48084"
       orientation="1,0"
       id="guide14705"
       inkscape:locked="false" />
    <sodipodi:guide
       position="135.50077,0"
       orientation="0,1"
       id="guide14707"
       inkscape:locked="false" />
  </sodipodi:namedview>
  <metadata
     id="metadata14153">
    <rdf:RDF>
      <cc:Work
         rdf:about="">
        <dc:format>image/svg+xml</dc:format>
        <dc:type
           rdf:resource="http://purl.org/dc/dcmitype/StillImage" />
        <dc:title></dc:title>
      </cc:Work>
    </rdf:RDF>
  </metadata>
  <g
     inkscape:label="Layer 1"
     inkscape:groupmode="layer"
     id="layer1"
     transform="translate(0,-161.53332)">
    <rect
       style="opacity:1;fill:#66b8ef;fill-opacity:1;stroke:#66b8ef;stroke-width:4.07836676;stroke-linejoin:miter;stroke-miterlimit:4;stroke-dasharray:none;stroke-opacity:1"
       id="rect828-0-2-5"
       width="131.38831"
       height="131.38831"
       x="1.9616928"
       y="163.49504" />
    <rect
       style="opacity:1;fill:#ffffff;fill-opacity:1;stroke:#e0e0e0;stroke-width:0;stroke-linejoin:miter;stroke-miterlimit:4;stroke-dasharray:none;stroke-opacity:1"
       id="rect826-6-2-8-34-0"
       width="35.809372"
       height="36.55724"
       x="7.3915911"
       y="167.52292" />
    <rect
       style="opacity:1;fill:#ffffff;fill-opacity:1;stroke:#e0e0e0;stroke-width:0;stroke-linejoin:miter;stroke-miterlimit:4;stroke-dasharray:none;stroke-opacity:1"
       id="rect826-6-2-8-0-1-1"
       width="35.809372"
       height="36.55724"
       x="50.799618"
       y="167.78088" />
    <rect
       style="opacity:1;fill:#ffffff;fill-opacity:1;stroke:#e0e0e0;stroke-width:0;stroke-linejoin:miter;stroke-miterlimit:4;stroke-dasharray:none;stroke-opacity:1"
       id="rect826-6-2-8-5-6-2"
       width="35.809372"
       height="36.55724"
       x="93.66745"
       y="167.62143" />
    <rect
       style="opacity:1;fill:#ffffff;fill-opacity:1;stroke:#e0e0e0;stroke-width:0;stroke-linejoin:miter;stroke-miterlimit:4;stroke-dasharray:none;stroke-opacity:1"
       id="rect826-6-2-8-7-4-8"
       width="35.809372"
       height="36.55724"
       x="6.9025159"
       y="209.72737" />
    <rect
       style="opacity:1;fill:#ffffff;fill-opacity:1;stroke:#e0e0e0;stroke-width:0;stroke-linejoin:miter;stroke-miterlimit:4;stroke-dasharray:none;stroke-opacity:1"
       id="rect826-6-2-8-0-5-1-8"
       width="35.809372"
       height="36.55724"
       x="50.310581"
       y="209.98523" />
    <rect
       style="opacity:1;fill:#ffffff;fill-opacity:1;stroke:#e0e0e0;stroke-width:0;stroke-linejoin:miter;stroke-miterlimit:4;stroke-dasharray:none;stroke-opacity:1"
       id="rect826-6-2-8-5-1-4-3"
       width="35.809372"
       height="36.55724"
       x="93.178406"
       y="209.82574" />
    <rect
       style="opacity:1;fill:#ffffff;fill-opacity:1;stroke:#e0e0e0;stroke-width:0;stroke-linejoin:miter;stroke-miterlimit:4;stroke-dasharray:none;stroke-opacity:1"
       id="rect826-6-2-8-3-2-7"
       width="35.809372"
       height="36.55724"
       x="6.8136716"
       y="253.55757" />
    <rect
       style="opacity:1;fill:#ffffff;fill-opacity:1;stroke:#e0e0e0;stroke-width:0;stroke-linejoin:miter;stroke-miterlimit:4;stroke-dasharray:none;stroke-opacity:1"
       id="rect826-6-2-8-0-3-0-7"
       width="35.809372"
       height="36.55724"
       x="50.221653"
       y="253.81552" />
    <rect
       style="opacity:1;fill:#ffffff;fill-opacity:1;stroke:#e0e0e0;stroke-width:0;stroke-linejoin:miter;stroke-miterlimit:4;stroke-dasharray:none;stroke-opacity:1"
       id="rect826-6-2-8-5-7-8-1"
       width="35.809372"
       height="36.55724"
       x="93.089493"
       y="253.65608" />
    <path
       inkscape:connector-curvature="0"
       d="m 118.24884,264.6903 c -3.28543,-0.23461 -10.60281,-0.23346 -13.88369,0 -3.55251,0.25385 -3.97092,2.49772 -3.99734,8.40441 0.0275,5.89629 0.44122,8.14986 3.99734,8.40443 3.28174,0.23347 10.59826,0.23462 13.88369,0 3.55248,-0.25385 3.97089,-2.49769 3.99736,-8.40443 -0.0274,-5.89624 -0.44122,-8.14981 -3.99736,-8.40441 z m -9.67663,12.21765 v -7.62648 l 7.29278,3.80658 z"
       id="path5257-7"
       style="fill:#f2f2f2;fill-opacity:1;stroke-width:0.93222195" />
    <path
       inkscape:connector-curvature="0"
       d="m 74.831526,219.765 c -3.28543,-0.23462 -10.6028,-0.23347 -13.88369,0 -3.55251,0.25385 -3.97091,2.49771 -3.99734,8.4044 0.0275,5.89627 0.44123,8.14987 3.99734,8.40444 3.28175,0.23346 10.59826,0.23461 13.88369,0 3.55248,-0.25386 3.97089,-2.49772 3.99737,-8.40444 -0.0275,-5.89623 -0.44123,-8.14983 -3.99737,-8.4044 z m -9.67663,12.21764 v -7.62648 l 7.29278,3.80658 z"
       id="path5257-7-0"
       style="fill:#ff2a2a;fill-opacity:1;stroke-width:0.93222195" />
    <path
       inkscape:connector-curvature="0"
       d="m 75.085766,264.54115 c -3.28542,-0.23461 -10.6028,-0.23346 -13.88368,0 -3.55251,0.25385 -3.97092,2.49772 -3.99734,8.40441 0.0275,5.89623 0.44122,8.14986 3.99734,8.4044 3.28174,0.23347 10.59826,0.23461 13.88368,0 3.55249,-0.25385 3.9709,-2.49769 3.99737,-8.4044 -0.0275,-5.89621 -0.44122,-8.14987 -3.99737,-8.40441 z m -9.67662,12.21765 v -7.62648 l 7.29278,3.80657 z"
       id="path5257-7-2"
       style="fill:#f2f2f2;fill-opacity:1;stroke-width:0.93222195" />
    <path
       inkscape:connector-curvature="0"
       d="m 31.607739,264.00938 c -3.285429,-0.23461 -10.602803,-0.23346 -13.883685,0 -3.552511,0.25385 -3.970919,2.49769 -3.997342,8.40441 0.02744,5.89623 0.441225,8.14983 3.997342,8.4044 3.281744,0.23347 10.598256,0.23461 13.883685,0 3.552485,-0.25385 3.970892,-2.49771 3.997369,-8.4044 -0.02744,-5.89627 -0.441225,-8.14987 -3.997369,-8.40441 z M 21.931111,276.227 v -7.62648 l 7.292781,3.80658 z"
       id="path5257-7-5"
       style="fill:#f2f2f2;fill-opacity:1;stroke-width:0.93222195" />
    <path
       inkscape:connector-curvature="0"
       d="m 31.862013,219.60545 c -3.285429,-0.23461 -10.602803,-0.23347 -13.883685,0 -3.552511,0.25385 -3.970919,2.49772 -3.997342,8.4044 0.02744,5.89627 0.441225,8.14987 3.997342,8.40444 3.281743,0.23346 10.598256,0.23461 13.883685,0 3.552485,-0.25385 3.970892,-2.49772 3.997369,-8.40444 -0.02744,-5.89623 -0.441225,-8.14983 -3.997369,-8.4044 z m -9.676629,12.21764 v -7.62648 l 7.292781,3.80658 z"
       id="path5257-7-51"
       style="fill:#f2f2f2;fill-opacity:1;stroke-width:0.93222195" />
    <path
       inkscape:connector-curvature="0"
       d="m 118.05526,219.60545 c -3.28542,-0.23461 -10.6028,-0.23347 -13.88368,0 -3.55251,0.25385 -3.97092,2.49772 -3.99734,8.4044 0.0274,5.89627 0.44123,8.14987 3.99734,8.40444 3.28174,0.23346 10.59826,0.23461 13.88368,0 3.55249,-0.25385 3.9709,-2.49772 3.99738,-8.40444 -0.0275,-5.89623 -0.44123,-8.14983 -3.99738,-8.4044 z m -9.67662,12.21764 v -7.62648 l 7.29278,3.80658 z"
       id="path5257-7-59"
       style="fill:#f2f2f2;fill-opacity:1;stroke-width:0.93222195" />
    <path
       inkscape:connector-curvature="0"
       d="m 118.81804,176.79691 c -3.28543,-0.23461 -10.60281,-0.23347 -13.88369,0 -3.55251,0.25385 -3.97092,2.49772 -3.99734,8.40443 0.0275,5.89624 0.44122,8.14984 3.99734,8.40441 3.28175,0.23346 10.59826,0.23461 13.88369,0 3.55248,-0.25385 3.97088,-2.49772 3.99737,-8.40441 -0.0275,-5.89626 -0.44123,-8.14986 -3.99737,-8.40443 z m -9.67663,12.21764 v -7.62645 l 7.29277,3.80655 z"
       id="path5257-7-09"
       style="fill:#f2f2f2;fill-opacity:1;stroke-width:0.93222195" />
    <path
       inkscape:connector-curvature="0"
       d="m 75.594266,177.06279 c -3.28543,-0.23461 -10.60281,-0.23346 -13.88368,0 -3.55252,0.25385 -3.97093,2.49772 -3.99734,8.40441 0.0275,5.89626 0.44121,8.14986 3.99734,8.40443 3.28174,0.23347 10.59825,0.23462 13.88368,0 3.55248,-0.25385 3.97089,-2.49771 3.99736,-8.40443 -0.0274,-5.89624 -0.44121,-8.14984 -3.99736,-8.40441 z m -9.67662,12.21765 v -7.62648 l 7.29277,3.80658 z"
       id="path5257-7-21"
       style="fill:#f2f2f2;fill-opacity:1;stroke-width:0.93222195" />
    <path
       inkscape:connector-curvature="0"
       d="m 32.370506,177.06279 c -3.285429,-0.23461 -10.602803,-0.23346 -13.883685,0 -3.552511,0.25385 -3.970919,2.49772 -3.997342,8.40441 0.02744,5.89626 0.441225,8.14986 3.997342,8.40443 3.281744,0.23347 10.598256,0.23462 13.883685,0 3.552485,-0.25385 3.970892,-2.49771 3.99737,-8.40443 -0.02744,-5.89624 -0.441226,-8.14984 -3.99737,-8.40441 z m -9.676628,12.21765 v -7.62648 l 7.292781,3.80658 z"
       id="path5257-7-7"
       style="fill:#f2f2f2;fill-opacity:1;stroke-width:0.93222195" />
  </g>
</svg>
