<svg width="16" height="16" viewBox="0 0 16 16" fill="none" xmlns="http://www.w3.org/2000/svg">
<path d="M3.60039 4C2.94039 4 2.40039 4.54 2.40039 5.2C2.40039 5.86 2.94039 6.4 3.60039 6.4C4.26039 6.4 4.80039 5.86 4.80039 5.2C4.80039 4.54 4.26039 4 3.60039 4ZM12.4004 4C11.7404 4 11.2004 4.54 11.2004 5.2C11.2004 5.86 11.7404 6.4 12.4004 6.4C13.0604 6.4 13.6004 5.86 13.6004 5.2C13.6004 4.54 13.0604 4 12.4004 4ZM8.00039 4C7.34039 4 6.80039 4.54 6.80039 5.2C6.80039 5.86 7.34039 6.4 8.00039 6.4C8.66039 6.4 9.20039 5.86 9.20039 5.2C9.20039 4.54 8.66039 4 8.00039 4Z" fill="#AAB2C8"/>
<path d="M3.60039 9.6001C2.94039 9.6001 2.40039 10.1401 2.40039 10.8001C2.40039 11.4601 2.94039 12.0001 3.60039 12.0001C4.26039 12.0001 4.80039 11.4601 4.80039 10.8001C4.80039 10.1401 4.26039 9.6001 3.60039 9.6001ZM12.4004 9.6001C11.7404 9.6001 11.2004 10.1401 11.2004 10.8001C11.2004 11.4601 11.7404 12.0001 12.4004 12.0001C13.0604 12.0001 13.6004 11.4601 13.6004 10.8001C13.6004 10.1401 13.0604 9.6001 12.4004 9.6001ZM8.00039 9.6001C7.34039 9.6001 6.80039 10.1401 6.80039 10.8001C6.80039 11.4601 7.34039 12.0001 8.00039 12.0001C8.66039 12.0001 9.20039 11.4601 9.20039 10.8001C9.20039 10.1401 8.66039 9.6001 8.00039 9.6001Z" fill="#AAB2C8"/>
</svg>
