<?xml version="1.0" ?><svg height="512px" id="Layer_1" style="enable-background:new 0 0 512 512;" version="1.1" viewBox="0 0 512 512" width="512px" xml:space="preserve" xmlns="http://www.w3.org/2000/svg" xmlns:cc="http://creativecommons.org/ns#" xmlns:dc="http://purl.org/dc/elements/1.1/" xmlns:inkscape="http://www.inkscape.org/namespaces/inkscape" xmlns:rdf="http://www.w3.org/1999/02/22-rdf-syntax-ns#" xmlns:sodipodi="http://sodipodi.sourceforge.net/DTD/sodipodi-0.dtd" xmlns:svg="http://www.w3.org/2000/svg"><defs id="defs19"/><g id="g3021"/><g id="Layer_1_1_"/><g id="g2992"><rect height="512" id="rect2989" rx="70" ry="70" style="fill:#e2e2e2;fill-opacity:1;stroke:none" transform="scale(-1,-1)" width="512" x="-512" y="-512"/><g id="g2986" transform="matrix(1.3666446,0,0,1.3666446,-93.412758,-93.765346)"><path d="m 268.6381,254.84524 c 0,31.77978 25.7626,57.54238 57.54237,57.54238 31.77978,0 57.54238,-25.7626 57.54238,-57.54238 0,-31.77977 -25.7626,-57.54237 -57.54238,-57.54237 -31.77977,0 -57.54237,25.7626 -57.54237,57.54237 z m 6.90508,0 c 0,27.96621 22.67109,50.6373 50.63729,50.6373 27.96621,0 50.63729,-22.67109 50.63729,-50.6373 0,-27.9662 -22.67108,-50.63728 -50.63729,-50.63728 -27.9662,0 -50.63729,22.67108 -50.63729,50.63728 z m 18.41356,-1.39623 c 0,8.12774 6.59769,14.71576 14.73696,14.71588 8.1394,0 14.73708,-6.58814 14.73708,-14.71588 0,-8.12762 -6.59756,-14.71575 -14.73708,-14.71563 -8.13927,0 -14.73696,6.58801 -14.73696,14.71563 z m 51.56408,14.71588 c 8.13952,0 14.73708,-6.58814 14.73708,-14.71588 0,-8.1275 -6.59768,-14.71563 -14.73708,-14.71563 -8.13939,0 -14.73696,6.58813 -14.73696,14.71563 0,8.12774 6.59769,14.71588 14.73696,14.71588 z m -0.018,-24.90359 c 5.62658,0 10.18783,4.56125 10.18783,10.18784 0,5.62658 -4.56125,10.18782 -10.18783,10.18782 -5.62658,0 -10.18783,-4.56124 -10.18783,-10.18782 0,-5.62659 4.56125,-10.18784 10.18783,-10.18784 z m 0,0" id="path3336" style="fill:#ff0084;fill-opacity:1;stroke:none"/><path d="m 127.62115,257.01474 c 0,31.77978 25.7626,57.54238 57.54237,57.54238 31.77978,0 57.54238,-25.7626 57.54238,-57.54238 0,-31.77977 -25.7626,-57.54237 -57.54238,-57.54237 -31.77977,0 -57.54237,25.7626 -57.54237,57.54237 z m 6.90509,0 c 0,27.96621 22.67108,50.63729 50.63728,50.63729 27.96621,0 50.63729,-22.67108 50.63729,-50.63729 0,-27.9662 -22.67108,-50.63728 -50.63729,-50.63728 -27.9662,0 -50.63728,22.67108 -50.63728,50.63728 z m 18.41355,-1.39623 c 0,8.12774 6.59769,14.71576 14.73696,14.71588 8.1394,0 14.73708,-6.58814 14.73708,-14.71588 0,-8.12762 -6.59756,-14.71575 -14.73708,-14.71563 -8.13927,0 -14.73696,6.58801 -14.73696,14.71563 z m 51.56408,14.71588 c 8.13952,0 14.73708,-6.58814 14.73708,-14.71588 0,-8.1275 -6.59768,-14.71563 -14.73708,-14.71563 -8.13939,0 -14.73696,6.58813 -14.73696,14.71563 0,8.12774 6.59769,14.71588 14.73696,14.71588 z m -0.018,-24.90359 c 5.62658,0 10.18783,4.56125 10.18783,10.18784 0,5.62658 -4.56125,10.18782 -10.18783,10.18782 -5.62658,0 -10.18783,-4.56124 -10.18783,-10.18782 0,-5.62659 4.56125,-10.18784 10.18783,-10.18784 z m 0,0" id="Oval-1" style="fill:#3a58a7;fill-opacity:1;stroke:none"/></g></g></svg>