<?xml version="1.0" ?><!DOCTYPE svg  PUBLIC '-//W3C//DTD SVG 1.0//EN'  'http://www.w3.org/TR/2001/REC-SVG-20010904/DTD/svg10.dtd'><svg enable-background="new 0 0 32 32" height="32px" id="Layer_1" version="1.0" viewBox="0 0 32 32" width="32px" xml:space="preserve" xmlns="http://www.w3.org/2000/svg" xmlns:xlink="http://www.w3.org/1999/xlink"><path clip-rule="evenodd" d="M31.862,7.204c0.239-1.359,0.233-2.759-0.593-3.815  c-1.155-1.482-3.612-1.537-5.296-1.275c-1.371,0.212-6.002,2.287-7.578,7.252c2.792-0.216,4.257,0.204,3.988,3.324  c-0.114,1.307-0.764,2.737-1.488,4.108c-0.838,1.58-2.409,4.685-4.469,2.447c-1.855-2.014-1.716-5.865-2.141-8.43  c-0.236-1.439-0.485-3.232-0.95-4.712c-0.4-1.273-1.318-2.808-2.44-3.14c-1.206-0.36-2.697,0.202-3.573,0.725  C4.535,5.352,2.412,7.717,0,9.668v0.183c0.479,0.463,0.605,1.224,1.311,1.327c1.659,0.248,3.241-1.569,4.346,0.321  c0.67,1.156,0.879,2.424,1.31,3.669c0.574,1.659,1.019,3.467,1.489,5.375c0.793,3.231,1.771,8.062,4.523,9.244  c1.405,0.604,3.516-0.205,4.584-0.848c2.896-1.739,5.151-4.26,7.082-6.824C29.06,16.046,31.496,9.17,31.862,7.204z" fill="#00ADEF" fill-rule="evenodd"/><g/><g/><g/><g/><g/><g/></svg>