<?xml version="1.0" encoding="UTF-8" standalone="no"?>
<svg
   xmlns:dc="http://purl.org/dc/elements/1.1/"
   xmlns:cc="http://creativecommons.org/ns#"
   xmlns:rdf="http://www.w3.org/1999/02/22-rdf-syntax-ns#"
   xmlns:svg="http://www.w3.org/2000/svg"
   xmlns="http://www.w3.org/2000/svg"
   xmlns:sodipodi="http://sodipodi.sourceforge.net/DTD/sodipodi-0.dtd"
   xmlns:inkscape="http://www.inkscape.org/namespaces/inkscape"
   enable-background="new 0 0 512 512"
   id="Layer_1"
   version="1.1"
   viewBox="0 0 512 512"
   xml:space="preserve"
   sodipodi:docname="youtube_active.svg"
   inkscape:version="0.92.3 (2405546, 2018-03-11)"><metadata
     id="metadata21113"><rdf:RDF><cc:Work
         rdf:about=""><dc:format>image/svg+xml</dc:format><dc:type
           rdf:resource="http://purl.org/dc/dcmitype/StillImage" /><dc:title></dc:title></cc:Work></rdf:RDF></metadata><defs
     id="defs21111" /><sodipodi:namedview
     pagecolor="#ffffff"
     bordercolor="#666666"
     borderopacity="1"
     objecttolerance="10"
     gridtolerance="10"
     guidetolerance="10"
     inkscape:pageopacity="0"
     inkscape:pageshadow="2"
     inkscape:window-width="1920"
     inkscape:window-height="1027"
     id="namedview21109"
     showgrid="false"
     inkscape:zoom="0.4609375"
     inkscape:cx="256"
     inkscape:cy="256"
     inkscape:window-x="1358"
     inkscape:window-y="-8"
     inkscape:window-maximized="1"
     inkscape:current-layer="Layer_1" /><rect
     style="opacity:1;fill:#ececec;fill-opacity:1;stroke:#ececec;stroke-width:4.83782244;stroke-linejoin:miter;stroke-miterlimit:4;stroke-dasharray:none;stroke-opacity:1"
     id="rect21658"
     width="508.42444"
     height="506.25497"
     x="3.9572804"
     y="3.9572623" /><g
     id="g21106"><path
       d="M255.7,446.3c-53.3,0.3-106.6-0.4-159.8-3.3c-17.3-1-34.6-2.5-50.3-11c-10.5-5.7-18.6-13.6-23.7-24.8   C13.3,388.6,10.6,369,9,349c-3.4-41.3-3.6-82.6-1.8-123.8c0.9-21.9,1.6-44,6.8-65.5c2-8.4,4.9-16.6,8.8-24.4   c9.2-18.3,25.2-27.4,44.5-31.2c16.2-3.2,32.8-3.1,49.3-3.8c55.9-2.3,111.9-3.5,167.9-2.9c43.1,0.5,86.3,1.6,129.4,3.8   c13.3,0.7,26.7,0.9,39.4,5.6c17.2,6.4,30,17.2,36.9,34.7c6.7,16.8,9.3,34.2,10.7,52.1c3.9,48.6,4,97.2,0.8,145.8   c-1.1,16.4-2.2,32.8-6.5,48.9c-9.7,37-32.8,51.5-66.7,53.8c-36.2,2.4-72.5,3.7-108.8,4.2C298.4,446.5,277,446.3,255.7,446.3z    M203.2,344c48.4-26.5,96.2-52.7,144.8-79.3c-48.7-26.7-96.5-52.8-144.8-79.3C203.2,238.7,203.2,291,203.2,344z"
       fill="#DD2C28"
       id="path21102" /><path
       d="M203.2,344c0-53,0-105.3,0-158.5c48.3,26.4,96.1,52.6,144.8,79.3C299.4,291.4,251.6,317.5,203.2,344z"
       fill="#FEFDFD"
       id="path21104" /></g></svg>