<svg width="137" height="99" viewBox="0 0 137 99" fill="none" xmlns="http://www.w3.org/2000/svg">
<path d="M15.8625 62.0649H97.6117C98.7624 62.066 99.8657 62.5236 100.679 63.3373C101.493 64.1509 101.951 65.2542 101.952 66.4049V79.6534C101.951 80.8041 101.493 81.9074 100.679 82.7211C99.8657 83.5347 98.7624 83.9923 97.6117 83.9934H15.8625C14.7118 83.9923 13.6085 83.5347 12.7948 82.7211C11.9811 81.9074 11.5236 80.8041 11.5225 79.6534V66.4049C11.5236 65.2542 11.9811 64.1509 12.7948 63.3373C13.6085 62.5236 14.7118 62.066 15.8625 62.0649Z" fill="#E9EDF5"/>
<path d="M15.7854 30.7217H97.5345C98.6852 30.7227 99.7885 31.1803 100.602 31.994C101.416 32.8077 101.873 33.911 101.875 35.0617V48.3101C101.873 49.4608 101.416 50.5641 100.602 51.3778C99.7885 52.1915 98.6852 52.6491 97.5345 52.6501H15.7854C14.6346 52.6491 13.5313 52.1915 12.7177 51.3778C11.904 50.5641 11.4464 49.4608 11.4454 48.3101V35.0617C11.4464 33.911 11.904 32.8077 12.7177 31.994C13.5313 31.1803 14.6346 30.7227 15.7854 30.7217ZM11.9022 48.3101C11.9037 49.3395 12.3133 50.3264 13.0412 51.0543C13.7691 51.7822 14.7559 52.1918 15.7854 52.1933H97.5345C98.5639 52.1918 99.5508 51.7822 100.279 51.0543C101.007 50.3264 101.416 49.3395 101.418 48.3101V35.0617C101.416 34.0322 101.007 33.0454 100.279 32.3175C99.5508 31.5896 98.5639 31.18 97.5345 31.1785H15.7854C14.7559 31.18 13.7691 31.5896 13.0412 32.3175C12.3133 33.0454 11.9037 34.0322 11.9022 35.0617V48.3101Z" fill="#535D71"/>
<path d="M26.9396 47.8535H66.2024C66.6871 47.8535 67.1519 47.6609 67.4946 47.3182C67.8373 46.9755 68.0298 46.5107 68.0298 46.0261C68.0298 45.5415 67.8373 45.0767 67.4946 44.734C67.1519 44.3913 66.6871 44.1987 66.2024 44.1987H26.9396C26.4549 44.1987 25.9901 44.3913 25.6474 44.734C25.3047 45.0767 25.1122 45.5415 25.1122 46.0261C25.1122 46.5107 25.3047 46.9755 25.6474 47.3182C25.9901 47.6609 26.4549 47.8535 26.9396 47.8535Z" fill="#E9EDF5"/>
<path d="M53.208 40.0869H66.2024C66.6871 40.0869 67.1519 39.8943 67.4946 39.5516C67.8373 39.2089 68.0298 38.7441 68.0298 38.2595C68.0298 37.7748 67.8373 37.3101 67.4946 36.9674C67.1519 36.6247 66.6871 36.4321 66.2024 36.4321H53.208C52.7233 36.4321 52.2586 36.6247 51.9159 36.9674C51.5732 37.3101 51.3806 37.7748 51.3806 38.2595C51.3806 38.7441 51.5732 39.2089 51.9159 39.5516C52.2586 39.8943 52.7233 40.0869 53.208 40.0869Z" fill="#E9EDF5"/>
<path d="M80.8983 49.24C82.3923 49.24 83.8527 48.797 85.095 47.9669C86.3372 47.1369 87.3054 45.9572 87.8771 44.5769C88.4489 43.1966 88.5985 41.6778 88.307 40.2125C88.0155 38.7472 87.2961 37.4012 86.2397 36.3448C85.1833 35.2884 83.8373 34.5689 82.372 34.2775C80.9067 33.986 79.3879 34.1356 78.0076 34.7073C76.6274 35.2791 75.4476 36.2472 74.6176 37.4895C73.7876 38.7317 73.3445 40.1921 73.3445 41.6861C73.3468 43.6888 74.1434 45.6088 75.5595 47.025C76.9756 48.4411 78.8956 49.2377 80.8983 49.24Z" fill="#12D488"/>
<path d="M79.7164 44.3433C79.529 44.3436 79.3466 44.283 79.1966 44.1705L79.1874 44.1636L77.2295 42.6659C77.1386 42.5964 77.0623 42.5098 77.005 42.4108C76.9476 42.3118 76.9103 42.2025 76.8953 42.0892C76.8802 41.9758 76.8877 41.8606 76.9172 41.7501C76.9467 41.6396 76.9977 41.536 77.0673 41.4452C77.1369 41.3544 77.2237 41.2783 77.3227 41.2211C77.4218 41.1639 77.5311 41.1268 77.6445 41.1119C77.7579 41.097 77.8731 41.1046 77.9836 41.1343C78.094 41.164 78.1976 41.2152 78.2882 41.2849L79.5564 42.2574L82.553 38.3479C82.6225 38.2572 82.7092 38.1812 82.8081 38.124C82.9069 38.0669 83.0161 38.0298 83.1293 38.0148C83.2426 37.9999 83.3576 38.0073 83.468 38.0369C83.5783 38.0664 83.6817 38.1173 83.7724 38.1868L83.7726 38.187L83.754 38.2128L83.7731 38.187C83.956 38.3276 84.0756 38.5349 84.1058 38.7635C84.1359 38.9922 84.0742 39.2234 83.934 39.4066L80.4092 44.003C80.3277 44.1089 80.2229 44.1946 80.1028 44.2534C79.9828 44.3122 79.8509 44.3427 79.7172 44.3423L79.7164 44.3433Z" fill="white"/>
<path d="M50.9109 66.3672H132.66C133.811 66.3682 134.914 66.8258 135.728 67.6395C136.541 68.4532 136.999 69.5565 137 70.7072V83.9556C136.999 85.1063 136.541 86.2096 135.728 87.0233C134.914 87.837 133.811 88.2946 132.66 88.2956H50.9109C49.7601 88.2946 48.6568 87.837 47.8432 87.0233C47.0295 86.2096 46.5719 85.1063 46.5709 83.9556V70.7072C46.5719 69.5565 47.0295 68.4532 47.8432 67.6395C48.6568 66.8258 49.7601 66.3682 50.9109 66.3672Z" fill="white"/>
<path d="M50.9109 66.3672H132.66C133.811 66.3682 134.914 66.8258 135.728 67.6395C136.541 68.4532 136.999 69.5565 137 70.7072V83.9556C136.999 85.1063 136.541 86.2096 135.728 87.0233C134.914 87.837 133.811 88.2946 132.66 88.2956H50.9109C49.7601 88.2946 48.6568 87.837 47.8432 87.0233C47.0295 86.2096 46.5719 85.1063 46.5709 83.9556V70.7072C46.5719 69.5565 47.0295 68.4532 47.8432 67.6395C48.6568 66.8258 49.7601 66.3682 50.9109 66.3672ZM47.0277 83.9556C47.0292 84.985 47.4388 85.9719 48.1667 86.6998C48.8946 87.4277 49.8814 87.8373 50.9109 87.8388H132.66C133.689 87.8373 134.676 87.4277 135.404 86.6998C136.132 85.9719 136.542 84.985 136.543 83.9556V70.7072C136.542 69.6778 136.132 68.6909 135.404 67.963C134.676 67.2351 133.689 66.8255 132.66 66.824H50.9109C49.8814 66.8255 48.8946 67.2351 48.1667 67.963C47.4388 68.6909 47.0292 69.6778 47.0277 70.7072V83.9556Z" fill="#535D71"/>
<path d="M62.0646 83.4985H101.327C101.812 83.4985 102.277 83.306 102.62 82.9633C102.962 82.6206 103.155 82.1558 103.155 81.6711C103.155 81.1865 102.962 80.7217 102.62 80.379C102.277 80.0363 101.812 79.8438 101.327 79.8438H62.0646C61.5799 79.8438 61.1151 80.0363 60.7724 80.379C60.4297 80.7217 60.2372 81.1865 60.2372 81.6711C60.2372 82.1558 60.4297 82.6206 60.7724 82.9633C61.1151 83.306 61.5799 83.4985 62.0646 83.4985Z" fill="#E9EDF5"/>
<path d="M88.3325 75.7324H101.327C101.567 75.7324 101.805 75.6851 102.026 75.5933C102.248 75.5014 102.449 75.3668 102.619 75.1972C102.789 75.0275 102.923 74.826 103.015 74.6043C103.107 74.3826 103.154 74.145 103.154 73.905C103.154 73.665 103.107 73.4274 103.015 73.2057C102.923 72.984 102.789 72.7826 102.619 72.6129C102.449 72.4432 102.248 72.3086 102.026 72.2167C101.805 72.1249 101.567 72.0776 101.327 72.0776H88.3325C87.8479 72.0776 87.3831 72.2702 87.0404 72.6129C86.6977 72.9556 86.5051 73.4204 86.5051 73.905C86.5051 74.3897 86.6977 74.8545 87.0404 75.1972C87.3831 75.5398 87.8479 75.7324 88.3325 75.7324Z" fill="#E9EDF5"/>
<path d="M116.024 84.8855C117.518 84.8855 118.978 84.4425 120.22 83.6124C121.463 82.7824 122.431 81.6027 123.003 80.2224C123.574 78.8421 123.724 77.3233 123.432 75.858C123.141 74.3927 122.422 73.0467 121.365 71.9903C120.309 70.9339 118.963 70.2145 117.498 69.923C116.032 69.6315 114.513 69.7811 113.133 70.3528C111.753 70.9246 110.573 71.8928 109.743 73.135C108.913 74.3772 108.47 75.8376 108.47 77.3316C108.472 79.3343 109.269 81.2544 110.685 82.6705C112.101 84.0866 114.021 84.8832 116.024 84.8855Z" fill="#12D488"/>
<path d="M114.842 79.9888C114.655 79.9891 114.472 79.9285 114.322 79.816L114.313 79.8091L112.355 78.3114C112.264 78.2419 112.188 78.1553 112.13 78.0563C112.073 77.9573 112.036 77.8481 112.021 77.7347C112.006 77.6213 112.013 77.5061 112.043 77.3956C112.072 77.2851 112.123 77.1815 112.193 77.0907C112.262 76.9999 112.349 76.9238 112.448 76.8666C112.547 76.8094 112.657 76.7723 112.77 76.7574C112.883 76.7425 112.999 76.7501 113.109 76.7798C113.22 76.8095 113.323 76.8607 113.414 76.9304L114.682 77.9029L117.679 73.9934C117.748 73.9028 117.835 73.8267 117.934 73.7695C118.032 73.7124 118.142 73.6753 118.255 73.6603C118.368 73.6454 118.483 73.6529 118.593 73.6824C118.704 73.7119 118.807 73.7628 118.898 73.8323L118.88 73.8583L118.899 73.8325C119.081 73.9731 119.201 74.1804 119.231 74.409C119.261 74.6377 119.2 74.869 119.059 75.0521L115.535 79.6485C115.453 79.7544 115.348 79.8401 115.228 79.8989C115.108 79.9578 114.976 79.9882 114.843 79.9878L114.842 79.9888Z" fill="white"/>
<path d="M32.7836 98.9999H0.260187C0.191181 98.9999 0.124997 98.9725 0.0762029 98.9237C0.0274083 98.8749 0 98.8087 0 98.7397C0 98.6707 0.0274083 98.6045 0.0762029 98.5557C0.124997 98.5069 0.191181 98.4795 0.260187 98.4795H32.7836C32.8526 98.4795 32.9188 98.5069 32.9676 98.5557C33.0164 98.6045 33.0438 98.6707 33.0438 98.7397C33.0438 98.8087 33.0164 98.8749 32.9676 98.9237C32.9188 98.9725 32.8526 98.9999 32.7836 98.9999Z" fill="#202C45"/>
<path d="M28.0081 17.5337C27.7065 17.7241 27.4503 17.9783 27.2575 18.2784C27.0648 18.5785 26.9402 18.9172 26.8925 19.2707C26.8448 19.6242 26.8752 19.9838 26.9816 20.3243C27.0879 20.6647 27.2676 20.9777 27.508 21.2412L25.1436 26.2903L27.8614 28.4755L31.1003 21.2983C31.5162 20.8651 31.7588 20.2944 31.782 19.6944C31.8052 19.0943 31.6075 18.5066 31.2264 18.0425C30.8452 17.5785 30.3071 17.2704 29.7139 17.1766C29.1208 17.0828 28.5138 17.2099 28.0081 17.5337V17.5337Z" fill="#FFB8B8"/>
<path d="M14.421 19.5827C15.1693 19.1332 16.0619 18.989 16.9137 19.1799C17.7655 19.3709 18.5111 19.8824 18.9959 20.6083L23.834 27.8525L25.5136 24.1496C25.6185 23.9184 25.8043 23.7335 26.036 23.6297C26.2677 23.526 26.5294 23.5105 26.7717 23.5862L29.3068 24.3781C29.4393 24.4194 29.5621 24.4869 29.6681 24.5764C29.7741 24.6659 29.8611 24.7758 29.9241 24.8994C29.987 25.0231 30.0246 25.1581 30.0346 25.2965C30.0446 25.4349 30.0268 25.5739 29.9823 25.7053L28.2469 30.8295C28.0274 31.4777 27.6606 32.0662 27.1754 32.5488C26.6902 33.0314 26.0997 33.3949 25.4503 33.6109C24.801 33.8269 24.1104 33.8895 23.4327 33.7937C22.7551 33.6978 22.1089 33.4463 21.5449 33.0587C21.2813 32.8776 21.0382 32.6684 20.8197 32.435L13.6899 24.8168C13.3437 24.4469 13.0846 24.0042 12.9316 23.5212C12.7786 23.0381 12.7355 22.527 12.8056 22.0252C12.8757 21.5234 13.0572 21.0436 13.3367 20.621C13.6162 20.1984 13.9867 19.8436 14.421 19.5827Z" fill="#CFD6E6"/>
<path d="M30.0719 12.0973C30.2018 12.1005 30.325 12.1552 30.4146 12.2493C30.5041 12.3434 30.5526 12.4693 30.5494 12.5991L30.5076 14.2806L30.5919 14.2883L30.5617 15.4304L30.4793 15.4201L30.3297 21.444C30.3246 21.6502 30.2446 21.8475 30.1047 21.9991C29.9648 22.1506 29.7746 22.2461 29.5695 22.2677L25.7391 22.6709C25.6458 22.6808 25.5515 22.6701 25.4628 22.6396C25.3742 22.6091 25.2932 22.5596 25.2257 22.4946C25.1581 22.4295 25.1057 22.3504 25.0719 22.263C25.0381 22.1755 25.0239 22.0816 25.0303 21.9881L25.6112 13.4104C25.6234 13.2302 25.6966 13.0596 25.8186 12.9265C25.9407 12.7934 26.1044 12.7058 26.2828 12.6781L29.9806 12.1036C30.0107 12.0987 30.0413 12.0966 30.0719 12.0973Z" fill="#202C45"/>
<path d="M27.1075 12.9901L29.0514 12.6881C29.0864 12.6826 29.1186 12.6658 29.1431 12.6402C29.1676 12.6146 29.1829 12.5817 29.1868 12.5465C29.1911 12.5066 29.2085 12.4693 29.2362 12.4403C29.2639 12.4113 29.3004 12.3922 29.3401 12.3861L29.7495 12.3225C29.8054 12.3138 29.8625 12.3175 29.9168 12.3333C29.9711 12.3491 30.0213 12.3766 30.0638 12.4139C30.1063 12.4512 30.1401 12.4973 30.1628 12.5491C30.1855 12.6009 30.1965 12.6571 30.1952 12.7136L29.9847 21.4473C29.9821 21.5557 29.9397 21.6593 29.8655 21.7384C29.7914 21.8175 29.6907 21.8665 29.5827 21.8761L25.7551 22.2164C25.7063 22.2208 25.6571 22.2145 25.6109 22.1981C25.5647 22.1817 25.5226 22.1555 25.4874 22.1213C25.4523 22.0872 25.4249 22.0458 25.4072 22.0001C25.3896 21.9544 25.3819 21.9054 25.3849 21.8565L25.9014 13.358C25.909 13.2328 25.9592 13.114 26.0436 13.0212C26.1281 12.9285 26.2418 12.8674 26.3657 12.8481L26.7974 12.7811C26.8132 12.8486 26.854 12.9076 26.9115 12.9463C26.969 12.9851 27.039 13.0007 27.1075 12.9901Z" fill="white"/>
<path d="M18.0884 95.8416L21.0629 95.8414L22.4775 84.3682L18.0874 84.3687L18.0884 95.8416Z" fill="#FFB8B8"/>
<path d="M26.8003 98.603L17.4518 98.6039L17.4515 94.992L23.1881 94.9914C23.6624 94.9914 24.1321 95.0848 24.5703 95.2663C25.0085 95.4477 25.4067 95.7137 25.7422 96.0491C26.0776 96.3845 26.3437 96.7826 26.5252 97.2208C26.7068 97.659 26.8003 98.1287 26.8003 98.603L26.8003 98.603Z" fill="#202C45"/>
<path d="M8.94684 95.8416L11.9213 95.8414L13.3359 84.3682L8.9458 84.3687L8.94684 95.8416Z" fill="#FFB8B8"/>
<path d="M17.6582 98.603L8.30974 98.6039L8.30942 94.992L14.046 94.9914C15.0039 94.9914 15.9226 95.3718 16.6001 96.0491C17.2775 96.7264 17.6581 97.6451 17.6582 98.603L17.6582 98.603Z" fill="#202C45"/>
<path d="M17.658 15.6833C21.1874 15.6833 24.0485 12.8222 24.0485 9.29281C24.0485 5.76345 21.1874 2.90234 17.658 2.90234C14.1287 2.90234 11.2676 5.76345 11.2676 9.29281C11.2676 12.8222 14.1287 15.6833 17.658 15.6833Z" fill="#FFB8B8"/>
<path d="M20.9467 26.3904C20.8945 24.7474 20.4319 23.1436 19.6012 21.7251C18.7705 20.3067 17.598 19.1187 16.1906 18.2694C14.5396 17.2965 12.7325 16.9171 11.2948 18.3548C10.4315 19.2397 9.74013 20.2774 9.25593 21.4149C7.92601 24.5147 7.839 28.0072 9.01292 31.1694L12.4348 40.623L20.3547 41.481C20.5034 41.4971 20.6539 41.481 20.7959 41.4337C20.9378 41.3863 21.0679 41.309 21.1772 41.2068C21.2866 41.1047 21.3726 40.9802 21.4295 40.8417C21.4863 40.7033 21.5127 40.5543 21.5067 40.4048L20.9467 26.3904Z" fill="#535D71"/>
<path d="M12.937 39.459C12.937 39.459 7.02003 41.6679 8.56702 51.0213C9.9552 59.4145 8.85203 87.2731 8.6109 92.9045C8.59943 93.1729 8.69229 93.4354 8.87002 93.6368C9.04775 93.8383 9.29656 93.9631 9.56431 93.9852L13.0183 94.273C13.2888 94.2956 13.5575 94.2115 13.7669 94.0388C13.9763 93.8661 14.11 93.6184 14.1394 93.3485L15.9232 76.9636C15.9302 76.8993 15.9609 76.8399 16.0093 76.797C16.0577 76.7541 16.1203 76.7308 16.185 76.7316C16.2497 76.7324 16.3117 76.7572 16.3591 76.8013C16.4064 76.8453 16.4357 76.9054 16.4411 76.9699L17.7703 92.736C17.7927 93.0016 17.9162 93.2485 18.1153 93.4258C18.3144 93.6031 18.5739 93.6972 18.8403 93.6888L21.7415 93.597C21.8782 93.5927 22.0127 93.5615 22.1373 93.5051C22.262 93.4487 22.3743 93.3684 22.4678 93.2686C22.5614 93.1688 22.6343 93.0516 22.6825 92.9235C22.7307 92.7955 22.7532 92.6593 22.7487 92.5226L21.0398 40.5515L12.937 39.459Z" fill="#535D71"/>
<path d="M18.9407 8.8717C21.0779 9.74826 23.8073 8.72431 24.8406 6.65829C25.874 4.59227 25.0562 1.79419 23.0729 0.609824C21.0896 -0.574543 18.2383 0.0325306 16.9095 1.9221C15.8286 -0.0252986 12.9969 -0.521775 11.0526 0.564842C9.10839 1.65146 8.04938 3.92749 7.92378 6.15122C7.79818 8.37495 8.47424 10.5656 9.29896 12.6346C10.633 15.9813 14.9276 17.7833 18.2502 16.3905C16.7291 14.125 17.0294 10.8096 18.9407 8.8717Z" fill="#202C45"/>
<path d="M27.5529 18.3086C27.4961 18.3087 27.4407 18.2903 27.3952 18.2562L27.3924 18.254L26.7982 17.7995C26.7707 17.7784 26.7476 17.7521 26.7303 17.7221C26.7129 17.6921 26.7016 17.6589 26.6971 17.6246C26.6926 17.5902 26.6948 17.5552 26.7038 17.5217C26.7128 17.4882 26.7282 17.4568 26.7493 17.4293C26.7704 17.4018 26.7967 17.3787 26.8267 17.3614C26.8568 17.344 26.8899 17.3327 26.9243 17.3282C26.9587 17.3237 26.9936 17.3259 27.0271 17.3349C27.0606 17.3439 27.092 17.3593 27.1195 17.3804L27.5044 17.6755L28.4138 16.4891C28.4349 16.4616 28.4612 16.4385 28.4912 16.4212C28.5212 16.4038 28.5543 16.3926 28.5887 16.388C28.623 16.3835 28.658 16.3858 28.6915 16.3947C28.7249 16.4037 28.7563 16.4191 28.7838 16.4402L28.7839 16.4403L28.7783 16.4481L28.7841 16.4403C28.8396 16.4829 28.8759 16.5458 28.885 16.6152C28.8942 16.6846 28.8754 16.7548 28.8329 16.8104L27.7632 18.2053C27.7385 18.2374 27.7066 18.2634 27.6702 18.2813C27.6338 18.2991 27.5937 18.3084 27.5532 18.3083L27.5529 18.3086Z" fill="#12D488"/>
<path d="M25.527 30.6751C25.1985 30.5362 24.8435 30.471 24.4871 30.4841C24.1307 30.4972 23.7814 30.5882 23.464 30.7509C23.1466 30.9136 22.8687 31.1438 22.6499 31.4255C22.4311 31.7072 22.2767 32.0334 22.1976 32.3812L16.7024 33.3226L16.46 36.8016L24.2016 35.3632C24.7947 35.4573 25.4017 35.3306 25.9076 35.0071C26.4136 34.6836 26.7832 34.1857 26.9466 33.6079C27.11 33.03 27.0557 32.4123 26.7941 31.8718C26.5324 31.3312 26.0816 30.9055 25.527 30.6751L25.527 30.6751Z" fill="#FFB8B8"/>
<path d="M16.0871 20.6895C16.8834 21.0473 17.5114 21.6978 17.8409 22.5061C18.1704 23.3144 18.1762 24.2186 17.857 25.031L14.6716 33.139L18.6706 32.404C18.9203 32.3581 19.1782 32.4051 19.3957 32.5361C19.6132 32.667 19.7753 32.873 19.8515 33.1152L20.6487 35.6486C20.6903 35.781 20.7051 35.9203 20.6921 36.0585C20.6791 36.1966 20.6386 36.3308 20.573 36.453C20.5074 36.5753 20.418 36.6832 20.3101 36.7705C20.2022 36.8577 20.0779 36.9224 19.9446 36.9609L14.7469 38.4617C14.0894 38.6515 13.3968 38.6864 12.7236 38.5635C12.0503 38.4407 11.4147 38.1635 10.8667 37.7536C10.3186 37.3438 9.87296 36.8125 9.56477 36.2015C9.25658 35.5905 9.09421 34.9163 9.0904 34.232C9.08862 33.9122 9.12149 33.5931 9.18842 33.2804L11.3724 23.0775C11.4785 22.582 11.694 22.1166 12.0032 21.7152C12.3125 21.3138 12.7076 20.9867 13.1596 20.7577C13.6116 20.5288 14.1091 20.4038 14.6156 20.392C15.1222 20.3802 15.6249 20.4819 16.0871 20.6895Z" fill="#CFD6E6"/>
</svg>
