<svg width="100" height="100" viewBox="0 0 100 100" fill="none" xmlns="http://www.w3.org/2000/svg">
<path fill-rule="evenodd" clip-rule="evenodd" d="M90.7002 85.4609C84.4375 93.0097 72.3956 90.9929 62.8277 93.3709C53.5335 95.6809 44.3866 102.22 35.2915 99.2322C26.2099 96.2487 22.8396 85.5958 16.7964 78.2483C10.8588 71.029 1.14803 65.6955 0.0978856 56.4422C-0.951171 47.1985 6.67152 39.5221 11.4957 31.5412C15.8676 24.3085 20.1527 17.1388 26.9344 12.0453C34.1982 6.58966 42.3994 1.52536 51.5153 1.48363C60.7 1.44158 68.4886 7.22002 76.4135 11.8188C84.8089 16.6906 95.7104 20.0478 99.0838 29.0876C102.453 38.117 94.606 47.2497 93.1897 56.7734C91.7484 66.465 96.9793 77.8922 90.7002 85.4609Z" fill="#F4F7FB"/>
<path d="M8.13042 32.8244L8.16292 32.9235H8.25556L8.18062 32.9774L8.21164 33.072L8.13042 33.0136L8.04921 33.072L8.08023 32.9774L8.00529 32.9235H8.09792L8.13042 32.8244Z" stroke="#12D488" stroke-width="0.758084"/>
<path d="M98.6324 39.8249L98.6649 39.924H98.7575L98.6826 39.9779L98.7136 40.0725L98.6324 40.0141L98.5512 40.0725L98.5822 39.9779L98.5072 39.924H98.5999L98.6324 39.8249Z" stroke="#12D488" stroke-width="0.758084"/>
<path d="M70.5923 92.4333L70.6248 92.5324H70.7175L70.6425 92.5863L70.6736 92.6809L70.5923 92.6225L70.5111 92.6809L70.5421 92.5863L70.4672 92.5324H70.5598L70.5923 92.4333Z" stroke="#F5AE41" stroke-width="0.758084"/>
<path d="M47.4171 1.12892C47.4171 1.53965 47.0799 1.8788 46.6564 1.8788C46.2328 1.8788 45.8956 1.53965 45.8956 1.12892C45.8956 0.718185 46.2328 0.379042 46.6564 0.379042C47.0799 0.379042 47.4171 0.718185 47.4171 1.12892Z" stroke="#EE2445" stroke-opacity="0.7" stroke-width="0.758084"/>
<path d="M94.1486 65.4766C94.1486 65.8873 93.8114 66.2265 93.3878 66.2265C92.9643 66.2265 92.6271 65.8873 92.6271 65.4766C92.6271 65.0658 92.9643 64.7267 93.3878 64.7267C93.8114 64.7267 94.1486 65.0658 94.1486 65.4766Z" stroke="#EE2445" stroke-opacity="0.6" stroke-width="0.758084"/>
<path d="M2.51086 65.4766C2.51086 65.8873 2.17369 66.2265 1.75013 66.2265C1.32656 66.2265 0.989393 65.8873 0.989393 65.4766C0.989393 65.0658 1.32656 64.7267 1.75013 64.7267C2.17369 64.7267 2.51086 65.0658 2.51086 65.4766Z" stroke="#EE2445" stroke-opacity="0.6" stroke-width="0.758084"/>
<path d="M78.7639 11.7397H79.1429C79.1429 11.5406 78.9889 11.3755 78.7903 11.3616C78.5916 11.3478 78.4162 11.4899 78.3885 11.6871L78.7639 11.7397ZM77.6621 12.8238V12.4448C77.4602 12.4448 77.2938 12.603 77.2836 12.8046C77.2733 13.0062 77.4229 13.1805 77.6237 13.2009L77.6621 12.8238ZM78.7639 13.9976H78.3848C78.3848 14.2045 78.5508 14.3732 78.7577 14.3766C78.9646 14.38 79.1359 14.2168 79.1427 14.01L78.7639 13.9976ZM79.9417 12.8388V13.2178C80.1417 13.2178 80.3073 13.0623 80.3199 12.8627C80.3326 12.663 80.1879 12.4879 79.9894 12.4627L79.9417 12.8388ZM78.3885 11.6871C78.3704 11.8167 78.3049 12.0222 78.1788 12.1858C78.0617 12.3377 77.9023 12.4448 77.6621 12.4448V13.2028C78.1818 13.2028 78.548 12.9485 78.7791 12.6487C79.0012 12.3607 79.1068 12.0242 79.1393 11.7924L78.3885 11.6871ZM77.6237 13.2009C77.7462 13.2134 77.9495 13.2748 78.1136 13.4064C78.2641 13.5272 78.3848 13.707 78.3848 13.9976H79.1429C79.1429 13.4508 78.8964 13.0625 78.5879 12.815C78.2929 12.5784 77.9453 12.4716 77.7005 12.4467L77.6237 13.2009ZM79.1427 14.01C79.1471 13.8765 79.1964 13.6659 79.3201 13.499C79.4308 13.3497 79.6112 13.2178 79.9417 13.2178V12.4597C79.3603 12.4597 78.9582 12.7141 78.711 13.0477C78.477 13.3636 78.3933 13.7324 78.3851 13.9852L79.1427 14.01ZM79.9894 12.4627C79.8426 12.4441 79.6106 12.3743 79.4257 12.2424C79.2503 12.1172 79.1429 11.9586 79.1429 11.7397H78.3848C78.3848 12.2685 78.67 12.6345 78.9854 12.8595C79.2913 13.0777 79.6481 13.1836 79.8939 13.2148L79.9894 12.4627Z" fill="#F4B125"/>
<line x1="78.6483" y1="10.683" x2="78.6483" y2="10.3121" stroke="#F4B125" stroke-width="0.758084" stroke-linecap="round"/>
<line x1="78.6483" y1="16.3275" x2="78.6483" y2="15.2793" stroke="#F4B125" stroke-width="0.758084" stroke-linecap="round"/>
<path d="M80.623 12.897H81.9908" stroke="#F4B125" stroke-width="0.758084" stroke-linecap="round"/>
<path d="M75.6084 12.897H76.4632" stroke="#F4B125" stroke-width="0.758084" stroke-linecap="round"/>
<g clip-path="url(#clip0_52:703)">
<path d="M75.3979 42.9783C74.4166 41.9648 73.4021 40.9172 73.0188 39.9991C72.6664 39.1557 72.6451 37.7588 72.6245 36.4078C72.5862 33.8935 72.5427 31.0439 70.5426 29.0628C68.5424 27.0817 65.6654 27.0387 63.127 27.0007C61.7629 26.9803 60.3526 26.9592 59.5012 26.6102C58.5745 26.2306 57.5165 25.2257 56.4933 24.2537C54.6961 22.5464 52.6587 20.6113 49.9424 20.6113C47.2262 20.6113 45.189 22.5464 43.3916 24.2537C42.3684 25.2257 41.3106 26.2306 40.3837 26.6102C39.5323 26.9592 38.1219 26.9803 36.7579 27.0007C34.2195 27.0387 31.3424 27.0817 29.3423 29.0628C27.3422 31.0439 27.2987 33.8935 27.2604 36.4078C27.2398 37.7588 27.2185 39.1557 26.8661 39.9991C26.4828 40.9169 25.4683 41.9648 24.487 42.9783C22.7632 44.7583 20.8096 46.7764 20.8096 49.4668C20.8096 52.1571 22.7632 54.175 24.487 55.9553C25.4683 56.9687 26.4828 58.0164 26.8661 58.9345C27.2185 59.7778 27.2398 61.1747 27.2604 62.5258C27.2987 65.04 27.3422 67.8896 29.3423 69.8707C31.3424 71.8518 34.2195 71.8949 36.7579 71.9328C38.1219 71.9532 39.5323 71.9744 40.3837 72.3233C41.3104 72.703 42.3684 73.7079 43.3916 74.6798C45.1887 76.3872 47.2262 78.3222 49.9424 78.3222C52.6587 78.3222 54.6959 76.3872 56.4933 74.6798C57.5165 73.7079 58.5742 72.703 59.5012 72.3233C60.3526 71.9744 61.7629 71.9532 63.127 71.9328C65.6654 71.8949 68.5424 71.8518 70.5426 69.8707C72.5427 67.8896 72.5862 65.04 72.6245 62.5258C72.6451 61.1747 72.6664 59.7778 73.0188 58.9345C73.4021 58.0166 74.4166 56.9687 75.3979 55.9553C77.1217 54.1752 79.0753 52.1571 79.0753 49.4668C79.0753 46.7764 77.1217 44.7586 75.3979 42.9783ZM62.8242 44.7744L47.5641 59.2022C47.177 59.5681 46.6624 59.7723 46.1273 59.7723C45.5922 59.7723 45.0777 59.5681 44.6906 59.2022L37.0607 51.9883C36.8629 51.8015 36.7042 51.5778 36.5936 51.3302C36.4831 51.0826 36.4229 50.8159 36.4165 50.5452C36.4101 50.2746 36.4576 50.0053 36.5562 49.7528C36.6549 49.5004 36.8028 49.2696 36.9915 49.0738C37.1802 48.8779 37.4061 48.7208 37.6561 48.6114C37.9061 48.5021 38.1755 48.4425 38.4487 48.4363C38.722 48.43 38.9938 48.4771 39.2487 48.575C39.5035 48.6728 39.7365 48.8194 39.9341 49.0063L46.1273 54.8618L59.9508 41.7925C60.1484 41.6055 60.3813 41.4589 60.6362 41.3611C60.8911 41.2633 61.1629 41.2162 61.4362 41.2224C61.7094 41.2287 61.9788 41.2882 62.2288 41.3976C62.4788 41.507 62.7046 41.6641 62.8934 41.8599C63.0821 42.0557 63.23 42.2865 63.3287 42.539C63.4273 42.7914 63.4748 43.0607 63.4684 43.3314C63.462 43.602 63.4018 43.8688 63.2912 44.1164C63.1807 44.364 63.022 44.5876 62.8242 44.7744Z" fill="#12D488"/>
</g>
<defs>
<clipPath id="clip0_52:703">
<rect width="66.5894" height="65.9553" fill="white" transform="translate(16.6475 16.4893)"/>
</clipPath>
</defs>
</svg>
